<svg width="24" height="24" viewBox="0 0 24 24" fill="none" xmlns="http://www.w3.org/2000/svg">
<rect width="24" height="24" rx="12" fill="#E84142"/>
<mask id="mask0_37_300" style="mask-type:alpha" maskUnits="userSpaceOnUse" x="4" y="4" width="16" height="16">
<rect x="4" y="4" width="16" height="16" fill="#D9D9D9"/>
</mask>
<g mask="url(#mask0_37_300)">
<path fill-rule="evenodd" clip-rule="evenodd" d="M8.47144 17.2764H6.14567C5.65696 17.2764 5.41555 17.2764 5.26836 17.1823C5.10938 17.0792 5.01223 16.9084 5.00045 16.72C4.99161 16.5464 5.11233 16.3343 5.35374 15.9104L11.0963 5.78826C11.3407 5.35843 11.4643 5.14351 11.6204 5.06403C11.7882 4.97866 11.9884 4.97866 12.1562 5.06403C12.3122 5.14351 12.4359 5.35843 12.6802 5.78826L13.8608 7.84907L13.8668 7.85958C14.1307 8.3207 14.2646 8.55455 14.323 8.79997C14.3877 9.06788 14.3877 9.3505 14.323 9.61841C14.2641 9.86571 14.1316 10.1012 13.8637 10.5693L10.8473 15.9016L10.8395 15.9152C10.5738 16.3801 10.4392 16.6158 10.2526 16.7936C10.0494 16.9879 9.80508 17.1291 9.53717 17.2088C9.29281 17.2764 9.01903 17.2764 8.47144 17.2764ZM14.3448 17.2764H17.6773C18.169 17.2764 18.4163 17.2764 18.5636 17.1794C18.7225 17.0763 18.8226 16.9025 18.8315 16.7142C18.84 16.5462 18.7219 16.3424 18.4905 15.9431C18.4825 15.9295 18.4746 15.9157 18.4664 15.9016L16.7971 13.0459L16.7781 13.0138C16.5435 12.6171 16.4251 12.4168 16.2731 12.3394C16.1054 12.254 15.908 12.254 15.7402 12.3394C15.5871 12.4189 15.4635 12.6279 15.2191 13.0489L13.5558 15.9046L13.5501 15.9144C13.3066 16.3347 13.1849 16.5448 13.1937 16.7171C13.2054 16.9056 13.3026 17.0792 13.4616 17.1823C13.6058 17.2764 13.8531 17.2764 14.3448 17.2764Z" fill="white"/>
</g>
</svg>
