<?xml version="1.0" standalone="no"?>
<!DOCTYPE svg PUBLIC "-//W3C//DTD SVG 20010904//EN"
 "http://www.w3.org/TR/2001/REC-SVG-20010904/DTD/svg10.dtd">
<svg version="1.0" xmlns="http://www.w3.org/2000/svg"
 width="480.000000pt" height="480.000000pt" viewBox="0 0 480.000000 480.000000"
 preserveAspectRatio="xMidYMid meet">
<metadata>
Created by potrace 1.14, written by Peter Selinger 2001-2017
</metadata>
<g transform="translate(0.000000,480.000000) scale(0.100000,-0.100000)"
fill="#000000" stroke="none">
<path d="M2150 4790 c0 -5 5 -10 12 -10 6 0 9 -3 5 -6 -3 -3 -12 -2 -19 2 -18
11 -38 14 -38 5 0 -4 -24 -7 -52 -6 -38 1 -57 -3 -66 -14 -12 -14 -13 -14 -8
4 5 18 5 18 -6 4 -7 -9 -23 -14 -36 -12 -14 2 -21 -1 -17 -7 3 -5 2 -10 -4
-10 -5 0 -12 6 -14 13 -4 9 -6 9 -6 0 -1 -7 -8 -10 -18 -6 -12 5 -15 2 -10
-10 5 -14 2 -15 -18 -7 -14 5 -25 6 -25 1 0 -4 -13 -7 -30 -6 -16 1 -27 -2
-24 -7 3 -4 0 -8 -6 -8 -6 0 -8 -4 -5 -10 3 -6 -1 -7 -9 -4 -9 3 -13 11 -10
16 4 6 -5 2 -19 -7 -15 -9 -31 -14 -37 -10 -5 3 -10 -2 -10 -12 0 -15 -2 -16
-10 -3 -5 8 -10 10 -10 3 0 -6 -8 -9 -19 -6 -10 3 -22 -1 -27 -8 -5 -9 -2 -10
10 -6 10 4 15 3 11 -3 -3 -6 -17 -7 -31 -4 -18 5 -24 2 -24 -11 0 -9 -5 -13
-10 -10 -6 4 -8 12 -4 18 3 7 -2 3 -10 -7 -12 -15 -16 -16 -16 -5 0 12 -2 12
-9 0 -5 -8 -14 -10 -21 -6 -9 5 -11 4 -6 -3 4 -7 2 -12 -4 -12 -6 0 -8 -5 -4
-12 5 -9 2 -9 -9 1 -15 12 -17 11 -18 -5 0 -11 -3 -14 -5 -7 -6 14 -34 5 -50
-15 -7 -9 -16 -12 -24 -7 -10 6 -12 4 -7 -9 5 -14 3 -15 -13 -6 -16 8 -22 7
-32 -9 -6 -10 -17 -17 -24 -14 -6 2 -18 -4 -25 -14 -8 -10 -18 -18 -24 -19
-20 -1 -65 -24 -65 -33 0 -5 -8 -8 -19 -6 -15 3 -18 -1 -14 -18 4 -18 3 -19
-6 -7 -10 14 -16 7 -12 -14 1 -5 -5 -4 -13 4 -13 10 -16 10 -16 -1 0 -13 -57
-46 -72 -41 -4 1 -5 -5 -2 -13 4 -10 0 -13 -15 -10 -12 2 -19 0 -16 -4 3 -5
-2 -12 -11 -15 -8 -3 -13 -10 -9 -15 3 -5 0 -13 -6 -17 -8 -4 -9 -3 -5 4 4 7
2 12 -4 12 -6 0 -13 -7 -16 -15 -4 -8 -10 -13 -15 -10 -4 3 -13 -4 -19 -15 -6
-11 -15 -18 -21 -15 -5 4 -9 1 -9 -5 0 -6 -5 -8 -12 -4 -10 6 -10 4 0 -8 11
-14 10 -16 -5 -14 -23 4 -46 -25 -30 -37 7 -5 2 -6 -10 -2 -17 5 -23 2 -23 -9
0 -10 -6 -13 -17 -9 -11 4 -14 3 -9 -5 4 -7 2 -12 -4 -12 -7 0 -9 -7 -6 -16 5
-14 4 -15 -9 -4 -10 8 -15 9 -15 1 0 -15 -37 -51 -44 -43 -3 3 -6 -3 -6 -12 0
-11 -5 -16 -14 -13 -10 4 -12 -1 -9 -16 4 -18 3 -19 -6 -7 -9 13 -11 12 -11
-4 0 -12 -5 -16 -14 -13 -10 4 -13 1 -9 -9 3 -8 -1 -14 -11 -14 -10 0 -13 -6
-10 -15 4 -9 0 -15 -10 -15 -9 0 -15 -6 -13 -12 1 -7 -5 -12 -15 -10 -12 2
-16 -4 -14 -21 2 -17 -2 -24 -13 -23 -9 0 -15 -4 -14 -11 2 -7 -6 -17 -17 -23
-11 -6 -18 -15 -15 -21 4 -5 1 -9 -5 -9 -6 0 -8 -5 -4 -12 5 -8 2 -8 -10 1 -9
8 -16 10 -14 5 3 -11 -21 -57 -35 -66 -6 -3 -12 -15 -13 -24 -2 -10 -10 -24
-18 -30 -9 -6 -13 -14 -9 -17 3 -4 1 -7 -5 -7 -6 0 -14 -9 -17 -21 -5 -13 -12
-18 -22 -14 -13 4 -14 3 -3 -10 12 -14 7 -20 -15 -15 -5 1 -7 -2 -2 -6 4 -4
-1 -17 -10 -28 -14 -16 -14 -18 -3 -11 9 6 8 3 -2 -7 -21 -19 -24 -33 -5 -22
8 5 8 3 -2 -9 -7 -9 -18 -14 -24 -10 -6 3 -7 1 -3 -5 4 -7 3 -12 -3 -12 -5 0
-8 -9 -6 -21 3 -15 0 -19 -11 -15 -10 4 -14 1 -12 -6 3 -7 -5 -21 -16 -31 -12
-10 -15 -16 -8 -12 18 9 15 -22 -3 -33 -9 -4 -17 -18 -18 -30 -1 -12 -4 -22
-8 -22 -4 0 -10 -7 -13 -16 -4 -10 -2 -13 7 -9 6 4 4 0 -7 -9 -11 -9 -16 -22
-12 -31 3 -9 2 -13 -4 -10 -6 3 -10 -3 -10 -14 0 -12 -6 -21 -12 -21 -9 0 -8
-4 2 -10 13 -8 13 -10 -1 -10 -11 0 -15 -8 -13 -26 2 -20 -1 -24 -13 -20 -13
5 -14 4 -3 -9 8 -10 9 -15 1 -15 -6 0 -11 -5 -11 -11 0 -5 4 -8 9 -5 5 4 4 -5
-2 -18 -7 -13 -15 -22 -19 -20 -4 2 -5 -7 -2 -22 4 -21 1 -25 -10 -21 -12 5
-13 1 -6 -18 7 -18 5 -25 -8 -30 -13 -5 -14 -8 -3 -14 10 -6 9 -10 -4 -15 -14
-5 -15 -9 -5 -21 7 -8 8 -15 3 -15 -9 0 -14 -23 -16 -72 -1 -15 -4 -25 -8 -22
-12 7 -17 -20 -7 -40 8 -14 7 -17 -3 -11 -9 6 -11 3 -6 -8 3 -10 3 -17 -1 -17
-4 0 -7 -15 -7 -32 1 -18 -3 -39 -9 -47 -9 -12 -8 -13 4 -6 12 7 13 6 3 -6 -7
-9 -8 -20 -3 -28 10 -18 1 -43 -12 -35 -6 4 -5 -3 1 -15 7 -11 8 -21 3 -21
-11 0 -9 -457 3 -467 4 -5 5 -2 0 6 -5 9 -4 12 3 8 11 -8 11 -25 -1 -44 -5 -8
-3 -13 3 -13 7 0 9 -7 6 -17 -4 -9 -1 -20 6 -25 7 -4 8 -8 2 -8 -6 0 -9 -13
-6 -30 2 -16 8 -27 13 -24 5 3 9 0 9 -5 0 -6 -6 -11 -12 -11 -9 0 -8 -4 2 -10
8 -5 11 -10 5 -10 -5 0 -3 -5 5 -10 10 -6 11 -10 3 -10 -9 0 -10 -7 -4 -22 4
-13 7 -33 6 -45 -1 -12 2 -20 7 -17 9 6 9 5 13 -41 4 -45 4 -47 13 -41 4 2 7
-10 7 -27 0 -18 9 -46 22 -64 13 -17 23 -35 23 -40 0 -4 -4 -2 -9 5 -7 11 -9
10 -14 -3 -4 -9 -3 -13 3 -10 6 3 10 -1 10 -9 0 -9 5 -16 12 -16 6 0 8 -3 5
-7 -4 -3 0 -15 10 -25 9 -10 13 -18 8 -18 -4 0 -1 -8 6 -17 12 -14 12 -16 -1
-9 -9 5 -8 2 2 -7 14 -11 15 -16 5 -27 -9 -9 -9 -11 0 -6 6 3 14 2 18 -4 3 -5
1 -10 -5 -10 -6 0 -8 -5 -5 -10 4 -6 11 -8 16 -5 5 3 6 -1 3 -9 -3 -9 -1 -16
6 -16 7 0 9 -8 5 -20 -5 -16 -2 -18 16 -15 17 4 20 2 11 -7 -15 -15 -16 -32
-2 -23 5 3 10 -3 10 -14 0 -12 5 -21 10 -21 6 0 10 -9 10 -20 0 -11 5 -20 11
-20 5 0 8 -4 4 -9 -3 -5 2 -17 11 -25 8 -9 12 -16 7 -16 -4 0 2 -7 14 -15 13
-9 20 -22 17 -30 -4 -8 -1 -15 6 -15 6 0 8 -4 5 -10 -3 -5 2 -10 12 -10 14 0
15 -2 5 -9 -11 -6 -10 -10 3 -15 10 -4 15 -12 11 -22 -3 -8 -2 -12 4 -9 6 3
10 -1 10 -10 0 -11 5 -15 16 -11 8 3 12 2 9 -3 -3 -6 3 -15 12 -21 15 -9 14
-10 -7 -5 -24 6 -24 5 3 -10 15 -9 27 -24 27 -35 0 -10 9 -22 20 -25 13 -4 20
-15 20 -31 0 -14 4 -23 9 -19 6 3 15 -5 22 -17 16 -30 35 -48 43 -41 3 4 6 -7
7 -23 0 -16 3 -24 5 -17 3 7 12 9 20 6 13 -5 13 -7 2 -14 -10 -7 -8 -11 9 -15
13 -4 21 -10 18 -14 -3 -5 4 -15 16 -24 12 -8 18 -19 14 -25 -3 -7 -3 -11 2
-10 19 3 33 -2 33 -12 0 -15 26 -39 34 -32 3 4 6 -2 6 -13 0 -16 2 -17 10 -4
9 13 10 13 10 0 0 -20 47 -63 60 -55 6 4 7 -1 3 -11 -4 -12 -3 -15 5 -10 7 4
12 3 12 -3 0 -5 9 -12 19 -16 12 -4 18 -12 14 -21 -3 -8 1 -14 10 -14 8 0 18
-6 20 -12 4 -10 8 -10 15 0 7 11 10 11 15 -3 5 -11 3 -14 -6 -10 -6 4 -4 0 5
-8 10 -8 15 -17 12 -20 -3 -3 3 -3 15 0 20 5 27 -5 22 -31 -1 -5 5 -6 14 -2 9
3 18 -1 21 -9 4 -8 10 -12 15 -9 5 3 9 -3 9 -13 0 -15 2 -16 10 -3 8 12 10 12
10 1 0 -18 30 -40 53 -41 10 0 15 -4 12 -10 -6 -9 11 -14 44 -13 9 1 10 -2 2
-10 -6 -6 -11 -16 -11 -22 0 -5 5 -3 10 5 9 13 12 12 25 -4 8 -11 24 -21 36
-23 11 -2 28 -10 36 -19 9 -8 22 -13 29 -10 7 3 16 0 20 -6 4 -7 3 -8 -4 -4
-8 5 -10 2 -6 -8 5 -12 10 -13 27 -5 17 9 19 9 14 -4 -4 -11 -2 -14 9 -10 7 3
14 0 14 -7 0 -7 8 -10 19 -7 14 3 18 1 14 -10 -5 -12 -1 -14 15 -8 12 3 22 2
22 -3 0 -6 7 -13 16 -16 9 -3 12 -2 8 5 -3 6 3 5 15 -3 12 -7 21 -16 21 -19 0
-4 7 -9 14 -12 11 -4 13 -1 10 11 -4 12 0 11 14 -6 22 -24 37 -30 27 -10 -4 7
-1 6 7 -2 7 -9 21 -14 31 -12 11 2 17 -3 17 -15 0 -14 2 -15 9 -5 6 11 10 10
15 -3 5 -14 9 -15 21 -5 10 8 15 9 15 2 0 -6 9 -9 19 -7 13 2 18 -1 15 -9 -4
-10 4 -12 28 -10 23 3 37 -1 45 -13 7 -9 13 -14 13 -10 0 4 9 3 20 -3 15 -8
20 -8 20 2 0 6 7 3 15 -8 15 -19 15 -19 9 1 -5 19 -5 19 10 1 8 -10 22 -16 31
-13 8 4 15 2 15 -4 0 -6 5 -7 10 -4 6 4 18 1 27 -7 12 -9 15 -9 9 -1 -4 7 -2
13 3 13 6 0 11 -6 11 -12 0 -9 4 -8 10 2 5 8 10 10 10 4 0 -7 7 -15 16 -18 12
-5 15 -2 10 11 -5 16 -4 16 6 3 7 -8 20 -15 28 -16 8 -1 26 -4 40 -8 19 -6 21
-5 10 3 -8 6 -10 11 -4 11 5 0 15 -5 22 -12 7 -7 12 -8 12 -4 0 5 7 3 15 -4
13 -11 14 -10 10 2 -4 9 0 15 9 15 8 0 12 -5 9 -10 -4 -6 3 -8 15 -5 12 4 20
2 16 -3 -3 -5 0 -9 5 -9 6 0 11 6 11 13 0 8 3 9 8 1 9 -13 453 -13 444 0 -3 5
5 7 16 4 12 -4 25 -2 28 3 3 5 19 7 35 4 22 -4 28 -2 23 6 -4 8 -3 9 5 5 6 -4
19 -2 28 6 9 7 14 8 10 2 -4 -7 0 -14 8 -17 9 -4 12 -1 9 8 -5 11 2 14 30 11
27 -2 36 2 37 13 0 11 2 12 6 3 4 -10 8 -10 19 -1 11 9 14 8 14 -2 0 -12 2
-12 9 0 5 8 23 14 40 13 17 0 29 3 26 8 -6 9 25 23 33 15 3 -3 -1 -5 -8 -5 -7
0 -10 -3 -7 -7 4 -3 17 2 29 13 12 10 19 14 15 8 -7 -12 29 -12 40 1 5 4 2 5
-4 1 -7 -4 -13 -3 -13 2 0 5 9 12 20 15 13 3 18 1 13 -6 -3 -7 4 -3 17 8 13
11 20 15 17 8 -8 -13 18 -12 30 2 5 4 1 5 -7 0 -8 -5 -12 -4 -7 0 4 5 17 10
29 12 12 2 25 8 29 14 4 8 8 7 12 -2 4 -10 6 -10 6 -1 1 6 10 12 22 12 11 0
18 4 15 9 -4 5 3 7 14 4 12 -3 20 0 20 6 0 7 5 9 10 6 6 -3 13 1 16 9 3 9 10
14 14 11 9 -6 72 24 82 39 4 6 8 7 8 2 0 -5 8 -2 17 5 15 12 16 12 8 -1 -4 -8
1 -6 12 5 11 11 18 25 15 30 -3 6 2 4 11 -4 15 -12 17 -11 17 5 0 16 2 17 10
4 8 -13 10 -12 10 4 0 15 3 16 15 6 13 -11 14 -10 9 5 -5 12 -4 16 4 11 6 -3
13 -2 17 4 4 6 11 7 17 4 6 -4 8 -2 5 3 -8 12 20 26 34 18 5 -4 17 8 27 24 10
17 22 28 26 24 4 -5 12 0 17 9 6 11 16 15 27 11 9 -3 14 -3 10 1 -10 11 14 34
29 29 8 -3 13 4 14 18 0 13 3 19 5 12 3 -7 12 -9 20 -6 7 3 11 9 8 14 -5 8 10
13 29 10 5 -1 6 3 2 9 -3 5 1 10 9 10 9 0 16 5 16 11 0 5 -5 7 -12 3 -7 -4 -8
-3 -4 5 4 6 12 9 17 6 5 -4 21 7 36 22 14 15 23 22 18 14 -5 -10 -4 -12 3 -7
7 4 12 14 12 23 0 9 6 13 15 9 8 -3 14 0 12 7 -1 7 6 11 15 11 9 -1 14 4 12
11 -3 7 2 15 11 19 9 3 14 10 11 15 -3 5 2 8 12 7 9 0 16 5 14 12 -1 7 5 15
13 18 8 3 12 10 9 15 -3 5 -2 9 3 8 20 -3 34 2 28 11 -3 5 1 10 9 10 9 0 16 7
16 15 0 8 7 15 15 15 9 0 12 6 9 15 -4 10 0 15 11 15 12 0 15 5 11 17 -4 10
-4 14 0 10 11 -10 35 13 27 27 -4 6 1 5 10 -3 15 -12 17 -12 11 3 -3 9 -1 16
6 16 6 0 9 4 5 9 -3 6 4 15 15 21 11 6 18 15 15 21 -4 5 -1 9 5 9 6 0 8 5 4
13 -5 7 -2 7 10 -2 9 -8 16 -10 14 -5 -3 12 21 56 41 72 9 8 10 10 2 7 -9 -5
-8 1 4 19 10 14 21 26 26 26 5 0 8 6 6 13 -1 6 4 11 10 10 7 -2 12 0 12 5 -4
21 3 32 19 32 14 0 15 2 2 10 -13 9 -8 14 12 11 4 0 5 8 3 19 -2 12 0 18 6 15
5 -4 9 1 9 10 0 10 5 13 13 9 8 -5 8 -2 -2 9 -12 15 -11 17 4 17 14 0 15 3 5
15 -11 13 -10 14 3 9 19 -7 44 32 24 39 -7 3 -4 6 6 6 10 1 15 6 12 11 -3 6
-2 10 3 10 8 0 20 28 20 47 0 3 7 10 16 15 8 5 13 15 10 22 -3 7 2 21 11 30
11 11 12 16 4 16 -7 0 -5 7 7 16 10 8 12 12 4 8 -12 -7 -13 -5 -3 8 7 8 9 19
5 23 -4 5 -2 5 4 2 16 -9 26 35 11 46 -8 6 -4 7 10 4 19 -4 21 -1 19 34 -2 22
1 39 6 39 5 0 6 -5 2 -12 -5 -7 -3 -8 5 -3 7 4 11 16 8 26 -3 11 0 19 6 19 7
0 5 5 -3 10 -13 8 -12 10 3 10 10 0 15 5 12 10 -4 6 -1 17 5 25 9 11 9 15 1
15 -6 0 -1 10 10 21 12 12 17 24 13 28 -14 10 -16 34 -3 25 9 -5 10 -2 6 9 -3
10 -2 17 2 17 5 0 7 9 4 20 -3 11 0 20 6 20 6 0 10 13 9 28 -1 15 1 33 5 39 4
6 3 14 -2 17 -5 4 -4 16 2 30 7 14 14 21 17 16 3 -5 5 17 5 48 -1 31 3 63 8
70 5 6 7 12 4 12 -3 0 -2 13 3 28 4 17 3 36 -2 47 -7 12 -7 16 -1 12 6 -4 11
4 11 18 -1 15 -5 22 -12 18 -6 -3 -6 0 2 8 15 16 16 33 0 23 -8 -5 -8 -3 -2 7
13 20 13 239 0 239 -7 0 -8 3 -1 8 14 10 19 46 6 37 -6 -3 -11 -1 -11 4 0 6 4
11 9 11 5 0 8 8 6 18 -2 9 -4 25 -4 35 -1 10 -5 16 -9 13 -4 -2 -8 6 -8 19 0
13 4 21 9 18 5 -3 4 4 -2 14 -6 11 -7 23 -3 27 3 4 0 11 -8 16 -8 6 -10 10 -4
10 6 0 9 13 6 30 -2 16 -8 27 -13 24 -5 -3 -9 0 -9 5 0 6 6 11 13 11 8 0 7 4
-3 10 -8 5 -10 10 -5 10 6 0 3 5 -5 10 -8 5 -10 10 -4 10 7 0 9 10 6 25 -2 14
-8 22 -13 19 -13 -8 -11 10 3 24 9 9 8 12 -7 12 -17 0 -18 2 -5 10 8 5 10 10
3 10 -6 0 -9 9 -5 22 4 16 2 19 -9 13 -11 -7 -11 -5 1 10 9 11 10 16 3 11 -9
-5 -13 1 -13 18 0 14 -4 26 -9 26 -5 0 -11 7 -14 14 -4 11 -1 13 10 9 14 -5
14 -3 -1 19 -9 13 -13 28 -9 33 5 4 2 4 -6 0 -11 -6 -13 -4 -8 8 4 10 1 17 -6
17 -8 0 -6 4 3 10 13 9 13 10 0 10 -10 0 -17 10 -18 27 -1 15 -7 30 -13 34 -8
4 -7 8 2 12 10 4 9 6 -3 6 -11 1 -15 6 -12 16 4 8 1 15 -6 15 -6 0 -8 5 -5 10
3 6 0 10 -7 10 -10 0 -10 2 0 8 9 7 7 15 -12 34 -18 20 -21 29 -12 39 8 9 8
10 -1 5 -7 -4 -13 -2 -13 4 0 6 -5 8 -12 4 -10 -6 -10 -5 -1 7 10 13 9 19 -6
35 -10 11 -17 27 -15 37 1 9 -4 17 -12 17 -8 0 -14 9 -14 20 0 11 -5 20 -10
20 -6 0 -9 3 -9 8 3 20 -2 32 -16 32 -8 0 -12 6 -9 13 2 7 -3 21 -12 32 -8 11
-12 14 -8 6 4 -9 3 -12 -4 -7 -6 4 -9 13 -5 21 3 10 -1 15 -13 15 -16 0 -17 2
-4 10 10 6 11 10 3 10 -7 0 -13 7 -13 16 0 8 -4 12 -10 9 -5 -3 -10 3 -10 13
0 11 -7 23 -16 26 -9 4 -14 13 -10 21 3 8 0 14 -7 12 -7 -1 -11 6 -10 16 0 12
-4 16 -13 13 -9 -3 -16 4 -20 19 -6 23 -15 30 -37 26 -4 -1 -3 8 3 19 9 17 7
22 -14 32 -14 6 -23 16 -19 21 4 6 0 8 -10 4 -10 -4 -16 -2 -14 6 1 7 -3 11
-10 10 -8 -2 -10 4 -6 14 4 10 2 14 -4 10 -5 -4 -15 5 -22 19 -6 14 -15 23
-21 19 -5 -3 -7 4 -5 16 4 18 2 19 -11 8 -9 -8 -14 -8 -12 -1 2 6 -6 18 -17
27 -11 9 -14 13 -6 9 10 -5 12 -3 7 5 -5 7 -14 10 -22 7 -8 -3 -11 0 -8 8 3 8
0 17 -7 22 -8 4 -10 3 -5 -4 5 -8 2 -10 -8 -6 -9 3 -14 9 -11 14 2 4 -11 20
-30 35 -18 16 -32 32 -29 37 3 4 -3 5 -12 1 -12 -4 -15 -3 -10 5 5 8 0 12 -13
12 -19 0 -26 10 -22 33 1 7 -24 11 -44 7 -5 -1 -7 2 -3 5 4 4 -1 15 -10 24
-11 10 -12 12 -2 6 13 -9 13 -8 1 8 -10 13 -17 14 -27 6 -9 -8 -15 -5 -23 9
-6 11 -7 23 -3 27 4 5 -1 5 -11 2 -11 -4 -20 -1 -23 8 -4 8 -10 12 -15 9 -5
-3 -9 3 -9 13 0 15 -2 16 -10 3 -8 -13 -10 -12 -10 3 0 17 -11 21 -39 17 -12
-1 -12 1 -3 13 10 12 8 13 -14 9 -19 -3 -25 -1 -20 7 4 6 2 11 -4 11 -6 0 -8
6 -4 13 4 6 4 9 -1 5 -4 -4 -15 -2 -23 5 -13 10 -15 9 -8 -3 4 -9 1 -8 -7 3
-8 9 -21 17 -30 17 -9 0 -19 5 -23 12 -5 7 -3 8 6 3 8 -5 11 -4 6 3 -4 6 -13
9 -21 5 -8 -3 -15 0 -15 7 0 7 -6 10 -14 7 -8 -3 -20 2 -28 11 -12 16 -11 16
7 2 18 -14 19 -14 7 2 -7 9 -22 15 -33 13 -10 -2 -19 0 -19 4 0 12 -70 42 -82
35 -6 -4 -8 -3 -5 3 3 5 -9 16 -28 25 -24 11 -36 12 -39 4 -2 -6 -5 -3 -5 7
-1 10 -9 17 -22 17 -12 0 -28 8 -35 18 -13 16 -14 16 -8 -3 6 -20 5 -20 -10
-1 -9 11 -16 17 -16 13 0 -4 -8 -3 -18 2 -13 7 -23 6 -31 -2 -10 -9 -11 -8 -5
7 5 13 4 17 -4 12 -7 -4 -12 -2 -12 4 0 7 -8 9 -20 5 -11 -4 -20 -2 -20 4 0 6
-7 7 -17 4 -10 -4 -14 -2 -9 5 4 7 -2 9 -18 6 -13 -2 -29 2 -36 11 -7 8 -18
15 -24 15 -6 0 -4 -5 4 -10 8 -5 11 -10 7 -10 -4 0 -20 8 -34 18 -18 11 -24
12 -19 4 7 -11 4 -12 -13 -3 -11 7 -21 16 -21 22 0 6 -5 7 -11 3 -8 -4 -7 -9
2 -15 8 -5 9 -9 3 -9 -6 0 -17 7 -24 15 -7 8 -16 12 -22 9 -5 -3 -16 0 -25 8
-12 9 -15 9 -9 1 4 -7 2 -13 -3 -13 -6 0 -11 6 -11 13 0 8 -4 7 -10 -3 -5 -8
-10 -10 -10 -4 0 7 -7 15 -16 18 -12 5 -15 2 -10 -11 5 -16 4 -16 -6 -3 -7 8
-20 15 -28 16 -8 1 -26 4 -40 8 -19 6 -21 5 -10 -3 8 -6 10 -11 4 -11 -5 0
-15 5 -22 12 -7 7 -12 8 -12 4 0 -5 -7 -3 -15 4 -13 11 -14 10 -10 -2 4 -9 0
-15 -9 -15 -8 0 -12 5 -9 10 4 6 -3 8 -15 5 -12 -4 -20 -2 -16 3 3 5 0 9 -5 9
-6 0 -11 -6 -11 -12 0 -9 -3 -9 -8 -2 -8 12 -336 14 -348 2 -4 -4 -13 -3 -21
3 -9 9 -13 8 -13 0 0 -9 -5 -9 -20 -1 -14 7 -20 7 -20 0z m2120 -890 c8 -5 11
-10 5 -10 -5 0 -17 5 -25 10 -8 5 -10 10 -5 10 6 0 17 -5 25 -10z m-4149
-2207 c13 -16 12 -17 -3 -4 -17 13 -22 21 -14 21 2 0 10 -8 17 -17z m3559
-1317 c0 -3 -4 -8 -10 -11 -5 -3 -10 -1 -10 4 0 6 5 11 10 11 6 0 10 -2 10 -4z
m-1030 -352 c0 -8 -19 -13 -24 -6 -3 5 1 9 9 9 8 0 15 -2 15 -3z"/>
<path d="M140 1560 c0 -5 5 -10 11 -10 5 0 7 5 4 10 -3 6 -8 10 -11 10 -2 0
-4 -4 -4 -10z"/>
</g>
</svg>
